<!-- Generator: Adobe Illustrator 21.0.0, SVG Export Plug-In  -->
<svg version="1.1"
	 xmlns="http://www.w3.org/2000/svg" xmlns:xlink="http://www.w3.org/1999/xlink" xmlns:a="http://ns.adobe.com/AdobeSVGViewerExtensions/3.0/"
	 x="0px" y="0px" width="263.232px" height="91.331px" viewBox="0 0 263.232 91.331"
	 style="enable-background:new 0 0 263.232 91.331;" xml:space="preserve">
<style type="text/css">
	.st0{fill:#80298F;}
	.st1{fill:#6B7B83;}
</style>
<defs>
</defs>
<g>
	<path class="st0" d="M201.965,25.503c-0.372,0-0.822-0.029-1.339-0.087c-5.523-0.621-11.783-1.325-17.865-1.944
		c-12.754-1.298-22.601-2.009-31.929-2.305c-3.045-0.097-6.058-0.146-8.957-0.146c-8.072,0-15.524,0.362-22.78,1.108
		c-0.91-0.057-2.194-0.346-2.276-0.752c-0.021-0.103-0.002-0.671,2.368-1.841l1.118-0.101c1.003-0.097,1.931-0.181,2.837-0.256
		l0.14-0.013l0.102-0.008c4.406-0.358,8.982-0.585,13.599-0.673c1.576-0.03,3.195-0.045,4.813-0.045
		c8.199,0,17.054,0.387,27.07,1.182c10.677,0.848,21.326,2.045,31.626,3.203c1.525,0.933,2.763,2.054,2.662,2.416
		C203.151,25.254,203.068,25.503,201.965,25.503C201.965,25.503,201.965,25.503,201.965,25.503z"/>
	<g>
		<g>
			<path class="st1" d="M29.593,73.372c1.347,0,2.408,0.308,3.185,0.924c0.776,0.616,1.164,1.472,1.164,2.569v2.456
				c0,0.721-0.131,1.281-0.393,1.679c-0.262,0.398-0.664,0.687-1.207,0.868c0.598,0.18,1.057,0.481,1.375,0.901
				c0.318,0.421,0.477,1.022,0.477,1.803v2.817c0,1.172-0.393,2.07-1.179,2.693c-0.786,0.623-1.852,0.935-3.199,0.935h-4.686V73.372
				H29.593z M27.657,81.034h1.796c0.711,0,1.216-0.12,1.515-0.361c0.299-0.24,0.449-0.668,0.449-1.284v-2.276
				c0-0.556-0.159-0.991-0.477-1.307c-0.318-0.315-0.833-0.473-1.543-0.473h-1.74V81.034z M27.657,89.055h1.964
				c1.347,0,2.02-0.601,2.02-1.803v-2.704c0-0.631-0.15-1.078-0.449-1.341c-0.299-0.262-0.823-0.394-1.571-0.394h-1.964V89.055z"/>
			<path class="st1" d="M47.495,73.372l3.816,17.643h-2.497l-0.505-2.546h-4.097l-0.477,2.546h-2.497l3.704-17.643H47.495z
				 M44.548,86.734h3.423l-1.74-8.833L44.548,86.734z"/>
			<path class="st1" d="M63.18,73.372c1.347,0,2.408,0.308,3.185,0.924c0.776,0.616,1.164,1.472,1.164,2.569v2.456
				c0,0.721-0.131,1.281-0.393,1.679c-0.262,0.398-0.664,0.687-1.207,0.868c0.598,0.18,1.057,0.481,1.375,0.901
				c0.318,0.421,0.477,1.022,0.477,1.803v2.817c0,1.172-0.393,2.07-1.179,2.693c-0.786,0.623-1.852,0.935-3.199,0.935h-4.686V73.372
				H63.18z M61.244,81.034h1.796c0.711,0,1.216-0.12,1.515-0.361c0.299-0.24,0.449-0.668,0.449-1.284v-2.276
				c0-0.556-0.159-0.991-0.477-1.307c-0.318-0.315-0.833-0.473-1.543-0.473h-1.74V81.034z M61.244,89.055h1.964
				c1.347,0,2.02-0.601,2.02-1.803v-2.704c0-0.631-0.15-1.078-0.449-1.341c-0.299-0.262-0.823-0.394-1.571-0.394h-1.964V89.055z"/>
			<path class="st1" d="M78.135,73.372v14.399c0,0.511,0.182,0.898,0.547,1.16c0.365,0.263,0.828,0.394,1.389,0.394
				c0.598,0,1.08-0.131,1.445-0.394c0.365-0.263,0.547-0.65,0.547-1.16V73.372h2.525v14.421c0,0.556-0.117,1.052-0.351,1.487
				c-0.234,0.436-0.557,0.808-0.968,1.115c-0.412,0.308-0.894,0.541-1.445,0.699c-0.552,0.158-1.146,0.236-1.782,0.236
				c-0.636,0-1.225-0.079-1.768-0.236c-0.543-0.158-1.015-0.391-1.417-0.699c-0.403-0.308-0.72-0.679-0.954-1.115
				c-0.234-0.435-0.351-0.931-0.351-1.487V73.372H78.135z"/>
			<path class="st1" d="M110.347,73.372v2.005h-2.469v15.638h-2.582V75.378h-2.469v-2.005H110.347z"/>
			<path class="st1" d="M120.393,73.372v17.643h-2.581V73.372H120.393z"/>
			<path class="st1" d="M131.392,73.372l3.423,13.993l3.62-13.993h2.581v17.643h-2.301V79.637l-2.694,11.379h-2.385l-2.75-11.537
				v11.537h-2.301V73.372H131.392z"/>
			<path class="st1" d="M154.681,73.372l3.816,17.643H156l-0.505-2.546h-4.097l-0.477,2.546h-2.497l3.704-17.643H154.681z
				 M151.735,86.734h3.423l-1.74-8.833L151.735,86.734z"/>
			<path class="st1" d="M168.486,73.372V89.01h4.125v2.005h-6.706V73.372H168.486z"/>
			<path class="st1" d="M184.143,73.057c1.328,0,2.366,0.315,3.115,0.946c0.748,0.631,1.122,1.465,1.122,2.501v0.631h-2.385v-0.473
				c0-0.511-0.168-0.916-0.505-1.217c-0.337-0.3-0.804-0.451-1.403-0.451c-0.692,0-1.202,0.184-1.529,0.552
				c-0.328,0.368-0.491,0.815-0.491,1.341c0,0.436,0.098,0.845,0.295,1.228c0.197,0.383,0.482,0.785,0.856,1.206
				c0.243,0.285,0.547,0.616,0.912,0.991c0.365,0.376,0.739,0.77,1.122,1.183c0.383,0.413,0.753,0.819,1.108,1.217
				c0.355,0.398,0.664,0.763,0.926,1.093c0.43,0.556,0.744,1.082,0.94,1.577c0.196,0.496,0.295,1.067,0.295,1.712
				c0,1.307-0.356,2.34-1.066,3.098c-0.711,0.759-1.824,1.138-3.339,1.138c-0.73,0-1.38-0.09-1.95-0.27
				c-0.571-0.18-1.052-0.424-1.445-0.732c-0.393-0.308-0.697-0.672-0.912-1.093c-0.215-0.42-0.323-0.871-0.323-1.352v-0.947
				l2.385,0.496v0.428c0,0.421,0.182,0.789,0.547,1.104c0.365,0.315,0.874,0.473,1.529,0.473c0.711,0,1.239-0.18,1.585-0.541
				c0.346-0.36,0.519-0.871,0.519-1.532c0-0.405-0.08-0.819-0.239-1.239c-0.159-0.42-0.445-0.886-0.856-1.397
				c-0.206-0.255-0.463-0.541-0.772-0.856c-0.309-0.315-0.631-0.646-0.968-0.991c-0.337-0.345-0.669-0.695-0.996-1.048
				c-0.328-0.353-0.622-0.695-0.884-1.025c-0.636-0.811-1.071-1.528-1.305-2.152c-0.234-0.623-0.351-1.22-0.351-1.791
				c0-1.172,0.407-2.099,1.221-2.783C181.716,73.399,182.796,73.057,184.143,73.057z"/>
			<path class="st1" d="M198.818,73.372v17.643h-2.581V73.372H198.818z"/>
			<path class="st1" d="M209.817,73.372l3.732,12.168V73.372h2.245v17.643h-2.301l-4.237-12.979v12.979h-2.245V73.372H209.817z"/>
			<path class="st1" d="M229.459,73.372l3.816,17.643h-2.497l-0.505-2.546h-4.097l-0.477,2.546h-2.497l3.704-17.643H229.459z
				 M226.513,86.734h3.423l-1.74-8.833L226.513,86.734z"/>
		</g>
	</g>
	<g>
		<path class="st0" d="M0,53.146c0-3.512,0.329-6.695,0.768-9.439c0.329-1.866,3.951,0.549,3.622,1.976
			c0.11,2.854-0.329,4.829-0.22,8.451c3.842-4.171,7.573-8.561,12.293-10.866c0.878-0.439,2.744,0.659,3.622,1.866
			c1.207,2.854,1.317,5.158,2.305,9l10.647-8.671c0.768-0.549,2.854,0.549,3.622,1.756c1.098,2.195,1.646,6.146,3.842,8.012
			c1.207,0.768,2.524,1.317,4.061,1.317c3.512,0,15.476-5.378,17.013-8.012c0.329-0.549,1.756,0.329,0.439,2.744
			c-1.646,2.963-8.781,8.341-15.037,8.341c-2.305,0-4.939-0.658-7.354-2.195c-1.646-1.098-2.744-2.415-3.732-3.732
			c-0.768-1.098-1.317-2.305-1.646-3.293c-4.939,4.061-7.683,6.256-10.647,8.232c-0.878,0.439-2.963-0.659-3.622-1.866
			c-1.098-2.415-1.756-4.939-2.744-9.22C11.634,51.17,8.561,56.987,4.28,60.719c-0.878,0.768-3.732-1.427-4.061-2.744
			C0.11,56.329,0,54.683,0,53.146z"/>
		<path class="st0" d="M58.283,54.353c0-2.415,1.207-4.829,3.951-6.695c2.964-1.976,6.695-2.963,10.537-2.963
			c3.073,0,6.147,0.659,8.89,1.866h0.11l1.866-2.524c0.659-1.207,4.39,1.207,3.622,2.524c-0.549,1.647-1.537,3.622-1.756,5.708
			c-0.11,1.866,0.439,4.061,2.415,4.61c5.598,1.098,15.037-4.5,18.988-8.89c1.866-1.866,3.512,0.878-2.525,6.915
			c-2.744,2.744-10.317,6.256-14.927,5.158c-3.622-0.878-6.366-2.963-7.793-6.915c-3.073,2.744-10.317,8.342-16.134,8.342
			c-1.427,0-2.744-0.329-3.951-1.098C59.381,58.744,58.283,56.658,58.283,54.353z M79.796,48.756
			c-1.098-0.329-2.634-0.549-4.28-0.549c-5.488,0-12.732,2.085-13.939,7.134c-0.329,1.317,0.329,2.524,1.976,2.634
			C68.82,57.317,75.954,52.817,79.796,48.756z"/>
		<path class="st0" d="M106.139,58.963V43.377c0-15.147,0.549-28.647,1.317-42.696c0-1.536,4.281-0.22,4.281,1.427
			c-1.427,14.049-1.646,28.318-1.866,43.354v9.769c3.402-3.842,12.732-12.622,18.988-10.647c1.537,0.439,3.183,1.756,3.622,3.183
			c0.329,2.634-0.549,5.707,0.22,8.89c1.098,0.549,2.305,0.768,3.512,0.768c5.707,0,17.561-4.61,21.074-9.329
			c0.988-1.207,0.439,2.305-1.207,4.719c-2.415,3.622-10.647,7.793-17.671,7.793c-2.415,0-4.829-0.549-7.354-2.195
			c-2.525-1.866-3.073-4.72-3.073-7.025c0-1.537,0.22-2.854,0.22-3.622c-6.256-0.329-17.781,11.305-18.22,16.354
			c0.11,1.647-3.293,0.22-3.732-1.536C106.139,62.366,106.139,61.048,106.139,58.963z"/>
		<path class="st0" d="M153.226,55.999c-0.329-0.988-0.549-2.085-0.549-3.183c0-4.829,3.293-9.768,8.671-9.988
			c3.402,0,6.585,3.293,5.378,6.476c-1.427,3.512-6.146,6.147-9.988,6.147c0.329,2.085,4.171,5.598,8.012,5.598
			c10.317,0,18-7.683,22.61-12.512c2.525-2.634,2.085-0.11,0.549,2.963c-3.073,6.366-10.098,11.744-17.671,12.183
			C163.763,64.012,155.421,62.805,153.226,55.999z M156.629,52.817c4.61-2.085,7.683-5.049,6.476-6.256
			C160.8,44.256,156.519,50.073,156.629,52.817z"/>
		<path class="st0" d="M187.799,59.731c0.988,0.22,2.195,0.329,3.622,0.329c3.512,0,7.903-0.549,10.756-1.207
			c-2.744-1.427-6.915-3.512-9.11-4.72c-2.854-1.647-5.927-2.744-6.366-6.037c-0.878-5.817,11.086-9.33,16.683-10.098
			c1.756-0.22,3.951,1.866,3.073,2.963c-4.061,1.427-14.049,3.293-15.256,6.146c-0.659,1.537,1.866,2.634,4.061,3.951
			c4.171,2.305,7.464,3.951,9.659,5.707c2.415,2.086,0.329,5.159-2.525,5.927c-1.976,0.549-4.829,0.878-7.683,0.878
			c-2.744,0-5.378-0.329-7.025-0.988C186.373,61.927,185.385,59.183,187.799,59.731z"/>
		<path class="st0" d="M211.593,58.963V43.377c0-15.147,0.549-28.647,1.317-42.696c0-1.536,4.281-0.22,4.281,1.427
			c-1.427,14.049-1.646,28.318-1.866,43.354v9.769c3.402-3.842,12.732-12.622,18.988-10.647c1.537,0.439,3.183,1.756,3.622,3.183
			c0.329,2.634-0.549,5.707,0.22,8.89c1.098,0.549,2.305,0.768,3.512,0.768c5.707,0,17.561-4.61,21.074-9.329
			c0.988-1.207,0.439,2.305-1.207,4.719c-2.415,3.622-10.647,7.793-17.671,7.793c-2.415,0-4.829-0.549-7.354-2.195
			c-2.524-1.866-3.073-4.72-3.073-7.025c0-1.537,0.22-2.854,0.22-3.622c-6.256-0.329-17.781,11.305-18.22,16.354
			c0.11,1.647-3.293,0.22-3.732-1.536C211.593,62.366,211.593,61.048,211.593,58.963z"/>
	</g>
</g>
</svg>